<?xml version="1.0" standalone="no"?>
<!DOCTYPE svg PUBLIC "-//W3C//DTD SVG 20010904//EN"
 "http://www.w3.org/TR/2001/REC-SVG-20010904/DTD/svg10.dtd">
<svg version="1.0" xmlns="http://www.w3.org/2000/svg"
 width="512.000000pt" height="512.000000pt" viewBox="0 0 512.000000 512.000000"
 preserveAspectRatio="xMidYMid meet">

<g transform="translate(0.000000,512.000000) scale(0.100000,-0.100000)"
fill="#000000" stroke="none">
<path d="M1022 4935 c3 -164 2 -185 -12 -179 -8 3 -69 17 -135 31 -167 35
-344 36 -462 1 -201 -60 -324 -192 -385 -413 -19 -70 -22 -105 -22 -285 0
-226 15 -352 64 -545 57 -225 160 -453 288 -635 96 -136 319 -357 453 -447
268 -181 480 -250 794 -260 l180 -5 45 -42 c65 -61 135 -116 212 -165 76 -48
133 -107 154 -157 19 -46 18 -62 -7 -69 -33 -11 -98 -74 -122 -119 -30 -58
-30 -165 0 -222 25 -47 95 -112 130 -120 23 -6 23 -8 23 -165 l0 -159 -202 -2
-203 -3 -3 -168 -2 -167 -200 0 -200 0 0 -320 0 -320 1150 0 1150 0 0 320 0
320 -200 0 -200 0 -2 168 -3 167 -202 3 -203 2 0 159 c0 157 0 159 23 165 35
8 105 73 130 120 30 57 30 164 0 222 -24 45 -89 108 -122 119 -25 7 -26 23 -7
69 21 51 80 110 154 157 74 46 143 100 212 165 l45 42 180 5 c314 10 526 79
794 260 134 90 357 311 453 447 128 182 231 410 288 635 49 193 64 319 64 545
0 180 -3 215 -22 285 -45 163 -128 283 -247 354 -145 88 -362 109 -600 58 -66
-14 -127 -28 -135 -31 -14 -6 -15 15 -12 179 l4 185 -1542 0 -1542 0 4 -185z
m2928 16 c0 -10 -3 -33 -6 -50 l-7 -31 -1381 2 -1381 3 -3 48 -3 47 1390 0
c1353 0 1391 -1 1391 -19z m-16 -268 c-2 -16 -8 -86 -14 -158 -60 -743 -210
-1384 -420 -1799 -138 -274 -306 -476 -495 -598 -143 -93 -208 -171 -245 -295
l-13 -43 -188 0 -188 0 -15 53 c-17 59 -78 158 -122 199 -16 14 -72 54 -124
89 -52 34 -128 94 -168 133 -402 388 -665 1210 -750 2344 l-8 102 1376 0 1377
0 -3 -27z m-3125 -38 c79 -15 211 -52 221 -62 5 -4 17 -143 13 -143 -1 0 -39
9 -85 20 -46 12 -135 23 -198 27 -186 9 -294 -26 -379 -123 -22 -25 -50 -71
-63 -103 -71 -177 23 -666 191 -1000 49 -96 164 -262 236 -341 227 -246 436
-355 738 -386 37 -3 67 -9 67 -13 0 -4 24 -44 54 -90 l54 -82 -96 6 c-236 17
-452 89 -637 215 -396 269 -651 672 -739 1165 -34 188 -37 492 -7 605 29 111
84 195 164 252 87 62 294 85 466 53z m3886 -14 c59 -20 78 -33 135 -90 63 -64
86 -105 111 -201 30 -113 27 -417 -7 -605 -88 -493 -343 -896 -739 -1165 -185
-126 -401 -198 -637 -215 l-97 -6 55 83 c30 46 54 86 54 89 0 4 30 10 68 13
301 31 510 140 737 386 72 79 187 245 236 341 124 247 212 585 213 819 0 147
-18 207 -85 284 -85 97 -193 132 -379 123 -63 -4 -152 -15 -198 -27 -46 -11
-84 -20 -85 -20 -4 0 8 139 13 143 11 9 114 40 198 58 122 26 309 21 407 -10z
m-3795 -317 c36 -8 88 -21 116 -29 l50 -15 13 -97 c66 -524 186 -1015 335
-1367 25 -60 45 -111 43 -112 -2 -2 -45 5 -96 16 -327 67 -641 389 -795 814
-101 279 -146 577 -102 681 30 70 78 108 159 125 53 11 192 3 277 -16z m3647
1 c89 -37 126 -107 126 -235 -1 -192 -87 -520 -193 -731 -172 -341 -444 -582
-721 -639 -51 -11 -94 -18 -96 -17 -1 2 20 57 47 123 149 355 267 839 330
1356 14 110 2 98 140 133 145 37 293 41 367 10z m-1658 -2711 c42 -35 44 -98
5 -135 l-26 -24 -308 0 -308 0 -26 24 c-39 37 -37 100 5 135 l31 26 298 0 298
0 31 -26z m-149 -474 l0 -150 -180 0 -180 0 0 150 0 150 180 0 180 0 0 -150z"/>
<path d="M490 2165 l0 -75 70 0 70 0 0 75 0 75 -70 0 -70 0 0 -75z"/>
<path d="M4160 2005 l0 -65 -65 0 -65 0 0 -80 0 -80 65 0 65 0 0 -60 0 -60 75
0 75 0 0 60 0 59 63 3 62 3 0 75 0 75 -62 3 -62 3 -3 62 -3 62 -72 3 -73 3 0
-66z"/>
<path d="M1410 1715 l0 -75 70 0 70 0 0 75 0 75 -70 0 -70 0 0 -75z"/>
<path d="M3720 1255 l0 -75 75 0 75 0 0 75 0 75 -75 0 -75 0 0 -75z"/>
<path d="M870 1205 l0 -55 -55 0 -55 0 0 -75 0 -75 55 0 55 0 0 -55 0 -55 75
0 75 0 0 55 0 55 55 0 55 0 0 75 0 75 -55 0 -55 0 0 55 0 55 -75 0 -75 0 0
-55z"/>
</g>
</svg>
