<?xml version="1.0" encoding="UTF-8"?>
<svg xmlns="http://www.w3.org/2000/svg" id="Layer_1" data-name="Layer 1" viewBox="0 0 24 24">
  <path d="M6.5,9H1v-1c0-1.105,.895-2,2-2h3c.337,0,.649,.091,.927,.238-.265,.534-.427,1.127-.427,1.762v1Zm11,0h5.5v-1c0-1.105-.895-2-2-2h-3c-.337,0-.649,.091-.927,.238,.265,.534,.427,1.127,.427,1.762v1Zm6.547,2l-.074,1.57c-.303,6.409-5.562,11.43-11.973,11.43S.33,18.979,.027,12.57l-.074-1.57H24.047Zm-14.407,3c.381,2.469,1.488,4.601,2.357,5.955,.869-1.358,1.978-3.495,2.362-5.955h-4.718Zm-.867,6.398c-.919-1.659-1.849-3.876-2.16-6.398H3.235c.667,2.956,2.777,5.336,5.538,6.398Zm11.992-6.398h-3.378c-.311,2.521-1.241,4.739-2.16,6.398,2.76-1.062,4.871-3.442,5.538-6.398ZM4.5,5c1.105,0,2-.895,2-2s-.895-2-2-2-2,.895-2,2,.895,2,2,2Zm11,3c0-1.105-.895-2-2-2h-3c-1.105,0-2,.895-2,2v1h7v-1Zm-3.5-3c1.381,0,2.5-1.119,2.5-2.5s-1.119-2.5-2.5-2.5-2.5,1.119-2.5,2.5,1.119,2.5,2.5,2.5Zm7.5,0c1.105,0,2-.895,2-2s-.895-2-2-2-2,.895-2,2,.895,2,2,2Z"/>
</svg>
