<?xml version="1.0" encoding="UTF-8"?>
<svg id="Camada_2" data-name="Camada 2" xmlns="http://www.w3.org/2000/svg" viewBox="0 0 913.76 354.24">
  <defs>
    <style>
      .cls-1 {
        fill: #1d1d1b;
      }
    </style>
  </defs>
  <g id="Camada_1-2" data-name="Camada 1">
    <g>
      <g>
        <path class="cls-1" d="M142.05,233.46c3.92,3.51,8.67,5.87,13.96,6.22,3.83,.28,7.95-.48,12.27-2.6,1.86-.92,3.75-1.84,5.68-2.72,.76-.33,1.52-.67,2.31-.97,8.34-3.4,17.53-5.02,28.84,1.41,2.22,1.26,4.53,2.84,6.93,4.8-10.69-21.42-1.42-32.75,6.95-43.29,7.12-8.94,6.57-18.46,2.11-26.39-1.47-2.6-6.08-6.99-15.17-10.35-.27-.1-.54-.2-.82-.3-5.83-2.09-13.35-4.12-21.34-6.18,.53-1.44,1.01-2.89,1.44-4.36,.23-.79,.46-1.59,.66-2.39,7.14,3.18,13.73,5.98,19.24,7.82h.04c9.2,3.07,15.56,2.53,18.32,1.41,8.43-3.4,14.8-10.48,14.83-21.93,.02-13.44-.14-28.09,21.58-38.14-23.93,.12-30.01-13.19-35.75-25.36-4.21-8.92-11.34-12.9-19.02-13.51-1.23-.1-2.47-.12-3.72-.05-2.97,.17-8.96,2.38-15.99,9.04-2.81,2.68-5.88,5.96-9.13,9.61-.75,.86-1.53,1.72-2.31,2.61-1.14,1.3-2.29,2.61-3.46,3.97-1.28-.99-2.62-1.88-4.02-2.65,2.79-3.85,5.36-7.5,7.48-10.82,.46-.74,.9-1.47,1.34-2.18,.34-.56,.66-1.12,.97-1.67,4.12-7.47,4.83-13.14,4.38-15.89-.66-3.91-2.07-7.6-4.38-10.71-.69-.93-1.46-1.81-2.31-2.63-2.86-2.74-6.65-4.82-11.48-5.92-2.14-.48-4.3-.96-6.46-1.53-11.08-2.94-21.82-8.25-26.07-27.83-4.16,19.09-14.47,24.61-25.26,27.6-2.41,.67-4.87,1.21-7.28,1.76-4.84,1.1-8.63,3.18-11.49,5.92-.51,.5-1.01,1.04-1.48,1.58-2.81,3.33-4.49,7.41-5.21,11.76-.48,2.91,.35,9.15,5.21,17.34l.14,.22c.42,.71,.86,1.43,1.33,2.18,2.1,3.32,4.67,6.97,7.48,10.82-1.42,.77-2.76,1.66-4.03,2.64-1.18-1.34-2.32-2.66-3.46-3.96-.5-.57-.98-1.12-1.48-1.68-3.57-4.02-6.91-7.65-9.97-10.55-7.02-6.67-13-8.88-15.98-9.04-1.25-.07-2.5-.06-3.71,.05-7.71,.6-14.82,4.58-19.03,13.51-5.75,12.17-11.81,25.48-35.74,25.36,21.71,10.05,21.55,24.7,21.58,38.14,.03,11.45,6.41,18.53,14.84,21.93,2.76,1.12,9.11,1.66,18.31-1.4h.04c5.49-1.84,12.09-4.67,19.22-7.83,.2,.8,.43,1.6,.67,2.39,.42,1.47,.9,2.92,1.43,4.36-7.98,2.07-15.51,4.09-21.33,6.18-.28,.09-.55,.19-.83,.3-9.08,3.36-13.71,7.75-15.17,10.35-4.47,7.93-5.01,17.45,2.11,26.39,8.37,10.53,17.65,21.87,6.96,43.29,2.4-1.95,4.71-3.52,6.93-4.8,11.69-6.65,21.11-4.69,29.66-1.08,.51,.23,.99,.44,1.48,.65,1.93,.88,3.83,1.8,5.68,2.72,4.63,2.27,9.03,2.97,13.09,2.53,4.97-.53,9.41-2.81,13.15-6.15,2.21-2,5.5-7.45,6.82-17.04,.88-6.23,1.24-14.16,1.58-22.73,1.21,.14,2.45,.26,3.71,.33,1.25-.07,2.49-.19,3.7-.33,.33,8.57,.7,16.5,1.57,22.73,1.33,9.59,4.61,15.04,6.84,17.04Zm31.91-148.82l2.31-2.12,4.76-4.38c4.9-4.49,13.55-13.62,15.6-13.74,3.8-.21,6.26,1.16,8.48,3.89,1.41,1.74,2.72,4.01,4.23,6.79,4.4,8.09,14.56,23.97,27.01,25.67-10.54,6.82-13.01,25.51-13.54,34.7-.47,8.11-1.19,12.74-6.97,15.07-1.14,.46-5.82-.96-10.73-2.64-3.3-1.11-6.7-2.33-9.22-3.17-3.44-1.14-6.09-1.88-8.98-2.78,1.98-9.74,2.12-19.75,.52-28.95-1.76-9.92-5.51-18.92-11.15-25.63-.75-.89-1.52-1.72-2.31-2.52l-.11-.1,.11-.1Zm0,18.76c.88,1.91,1.65,3.93,2.31,6.06,.26,.9,.53,1.82,.76,2.77h-43.66v-24.48c8.45-3.39,16.14-3.62,22.65-1.45,7.84,2.63,14.04,8.75,17.94,17.1Zm-101.5,9.58c-1.61,9.21-1.47,19.22,.5,28.95-2.9,.9-5.54,1.64-8.98,2.78-2.51,.84-5.92,2.05-9.21,3.17-4.92,1.68-9.59,3.1-10.74,2.64-5.76-2.33-6.48-6.96-6.96-15.07-.55-9.18-3.01-27.88-13.56-34.7,12.46-1.7,22.61-17.59,27.02-25.67,1.51-2.77,2.83-5.05,4.24-6.79,2.22-2.73,4.68-4.1,8.47-3.89,2.04,.12,10.71,9.24,15.57,13.74l5.62,5.15,1.48,1.35,.1,.1-.1,.09c-.5,.51-1,1.03-1.48,1.57-6.1,6.81-10.15,16.19-11.97,26.59Zm47.79,90.93c-1.01,6.57-2.05,19.09-3.6,20.48-3.59,3.21-7.1,3.08-11.97,1.39-1.4-.49-2.93-1.1-4.62-1.79-3.51-1.48-8.6-3.38-14.15-4.64-.49-.13-.97-.22-1.48-.33-7.48-1.53-15.56-1.77-21.49,1.78,3.33-9.94-2.93-22.83-8.17-31.18-1.04-1.66-2.04-3.14-2.92-4.39-4.68-6.61-7.02-10.68-3.96-16.11,.47-.84,3.35-2.12,6.88-3.48,4.05-1.56,9-3.22,12.33-4.45,4.1-1.52,6.93-2.77,10.58-4.12,1.85,4.26,4.09,8.3,6.75,12.08,.48,.68,.98,1.36,1.48,2.02,4.95,6.43,11.18,11.96,18.77,15.98,5.14,2.71,10.9,4.74,17.27,5.91l-1.7,10.87Zm6.27-20.13c-8.19-1.81-15.56-4.64-21.85-8.56-8.3-5.18-14.73-12.27-18.77-21.47-.51-1.22-1.02-2.48-1.48-3.79-2.97-8.58-4-18.83-2.72-30.89h44.81v64.72Zm0-71.56h-43.67c.44-1.81,.96-3.59,1.58-5.26,.46-1.24,.96-2.42,1.48-3.58,4.05-8.63,10.53-14.9,18.77-17.36,6.34-1.91,13.73-1.55,21.85,1.71v24.48Zm3.65-32.28h-.54c-9.38-4.15-17.72-5.43-24.95-4.46-2.31,.31-4.51,.84-6.59,1.59-.69-1.24-1.41-2.5-2.26-3.91-3.08-5.15-9.01-14.18-9.92-17.39-.09-.35-.14-.63-.09-.82,.03-.2,.06-.37,.09-.55,1.18-5.7,5.53-7.37,13.11-9.54,1.61-.46,3.57-1.07,5.66-1.81,9.27-3.29,21.7-9.36,25.26-18.98,3.66,9.9,16.73,16.05,26.07,19.27,1.78,.61,3.43,1.12,4.85,1.52,7.56,2.16,11.9,3.83,13.09,9.53,.02,.19,.07,.37,.1,.56,.02,.19,0,.47-.1,.81-.91,3.19-6.92,12.2-9.93,17.39l-2.24,3.91c-1.84-.67-3.75-1.16-5.77-1.48-7.43-1.18-16.04,.02-25.78,4.35h-.05Zm3.18,103.85V119.07h44.89c1.12,10.81,.36,20.22-1.98,28.3-.66,2.23-1.42,4.35-2.31,6.38-3.9,8.86-10.03,15.81-17.94,20.96-6.45,4.19-14.09,7.21-22.65,9.1Zm4.55,9.25c6.73-1.23,12.76-3.43,18.1-6.36,7.22-3.97,13.17-9.32,17.94-15.53,.8-1.06,1.56-2.13,2.31-3.25,2.29-3.41,4.27-7.06,5.92-10.86,3.64,1.35,6.48,2.6,10.57,4.12,3.32,1.24,8.28,2.89,12.34,4.45,3.54,1.36,6.4,2.64,6.88,3.48,3.06,5.43,.71,9.5-3.98,16.11-.88,1.25-1.88,2.73-2.91,4.39-5.25,8.36-11.49,21.25-8.17,31.18-5.73-3.42-13.44-3.31-20.67-1.95-.79,.15-1.54,.32-2.31,.5-5.55,1.26-10.65,3.16-14.16,4.64-1.35,.55-2.62,1.07-3.79,1.51-5.32,1.95-9.01,2.3-12.81-1.1-1.53-1.38-2.58-13.91-3.59-20.48l-1.7-10.87Z"/>
        <g>
          <path class="cls-1" d="M407.09,49.77v108.28c0,19.99-4.39,60.18-56.23,60.18s-56.23-40.19-56.23-60.18V49.77h44.8v104.11c0,4.39-.22,10.1,1.1,14.5,1.32,4.61,4.17,8.13,10.32,8.13s9.22-3.51,10.32-7.91c1.32-4.61,1.1-10.32,1.1-14.5V49.77h44.8Z"/>
          <path class="cls-1" d="M432.35,215.38V49.77h44.8v126.51h33.6v39.09h-78.41Z"/>
          <path class="cls-1" d="M528.98,49.77h52.71c26.36,0,57.1,11.42,57.1,47.22,0,18.67-12.08,33.16-30.97,33.16v.44c21.96,1.76,33.6,15.37,33.6,37.56,0,20.43-12.3,47.22-52.27,47.22h-60.18V49.77Zm47.44,64.35c9.23,0,17.79-3.73,17.79-14.5,0-9.88-6.81-14.06-16.03-14.06h-4.39v28.55h2.64Zm1.1,65.45c9.88,0,18.67-4.83,18.67-16.03s-8.57-15.81-18.89-15.81h-3.51v31.85h3.73Z"/>
          <path class="cls-1" d="M732.35,215.38l-24.82-68.96-.44,.44c.22,8.13,.66,16.25,.66,24.38v44.15h-44.8V49.77h43.27c38.88,0,66.99,11.42,66.99,55.13,0,18.23-7.91,34.48-25.7,41.51l33.38,68.96h-48.54Zm-21.74-88.95c11.86,0,18.23-10.32,18.23-21.08,0-14.5-8.78-20.65-21.08-19.99v40.85l2.86,.22Z"/>
          <path class="cls-1" d="M867.42,215.38l-3.29-21.3h-30.09l-3.73,21.3h-46.12l39.75-165.6h54.69l35.14,165.6h-46.34Zm-8.57-56.45l-4.83-38.44c-1.32-10.32-2.2-20.87-3.29-31.19h-.44c-1.32,10.32-2.42,20.87-4.17,31.19l-6.15,38.44h18.89Z"/>
        </g>
      </g>
      <g>
        <path class="cls-1" d="M571.25,353.15v-88.39h18.34c9.73,0,16.95,2.11,21.67,6.33,4.72,4.22,7.08,10.67,7.08,19.34s-2.28,14.7-6.84,19.28c-4.56,4.58-10.96,6.87-19.19,6.87-1.05,0-1.85,0-2.39-.03-.55-.02-1.06-.05-1.54-.09l-.06,36.69h-17.07Zm17.07-50.07c.2,0,.52,.02,.94,.06,.42,.04,.74,.06,.94,.06,3.75,0,6.61-1.08,8.57-3.24,1.96-2.16,2.94-5.26,2.94-9.29s-.93-7.29-2.79-9.29c-1.86-2-4.76-3-8.72-3-.2,0-.51,.02-.94,.06-.42,.04-.74,.06-.94,.06v24.58Z"/>
        <path class="cls-1" d="M617.05,353.15l20.58-88.39h18.46l19.61,88.39h-17.62l-2.97-15.5h-17.74l-2.72,15.5h-17.62Zm23.55-29.24h11.75c-1.21-6.18-2.3-12.64-3.27-19.4-.97-6.76-1.82-13.89-2.54-21.4-.89,6.62-1.83,13.33-2.82,20.13-.99,6.8-2.03,13.69-3.12,20.67Z"/>
        <path class="cls-1" d="M683.37,353.15v-88.39h17.44v71.13h20.1v17.25h-37.53Z"/>
        <path class="cls-1" d="M724.75,353.15l8.66-88.39h22.7l4.6,33.72c.69,5.13,1.26,10.04,1.73,14.74,.46,4.7,.84,9.27,1.12,13.71,.73-7.79,1.34-13.93,1.85-18.43,.5-4.5,.92-7.84,1.24-10.02l5.69-33.72h22.46l7.45,88.39h-17.86l-1.88-41.05c-.04-.97-.1-2.42-.18-4.36-.52-10.74-.79-19.53-.79-26.4l-11.5,71.8h-12.77l-10.84-72.28c0,6.01-.36,14.61-1.09,25.79-.16,2.54-.28,4.44-.36,5.69l-2.72,40.8h-17.5Z"/>
        <path class="cls-1" d="M805.6,353.15l20.58-88.39h18.46l19.61,88.39h-17.62l-2.97-15.5h-17.74l-2.72,15.5h-17.62Zm23.55-29.24h11.75c-1.21-6.18-2.3-12.64-3.27-19.4-.97-6.76-1.82-13.89-2.54-21.4-.89,6.62-1.83,13.33-2.82,20.13-.99,6.8-2.03,13.69-3.12,20.67Z"/>
        <path class="cls-1" d="M869.19,350.07v-18.34c2.22,1.94,4.4,3.39,6.54,4.36,2.14,.97,4.3,1.45,6.48,1.45,2.99,0,5.34-.79,7.05-2.36,1.71-1.57,2.57-3.71,2.57-6.42,0-3.35-2.32-6.98-6.96-10.9-1.29-1.09-2.26-1.94-2.91-2.54-5.41-4.84-9.12-9.19-11.14-13.05-2.02-3.85-3.03-8.22-3.03-13.11,0-7.63,2.15-13.79,6.45-18.49,4.3-4.7,9.92-7.05,16.86-7.05,2.46,0,4.89,.35,7.29,1.06,2.4,.71,4.93,1.81,7.6,3.3v15.62c-3.11-1.49-5.52-2.52-7.23-3.09-1.72-.56-3.24-.85-4.57-.85-2.54,0-4.62,.8-6.24,2.39-1.61,1.6-2.42,3.68-2.42,6.27,0,2.26,.6,4.37,1.82,6.33,1.21,1.96,4.04,4.85,8.48,8.69,5.93,5.09,9.75,9.31,11.44,12.68,1.7,3.37,2.54,7.44,2.54,12.2,0,8.03-2.27,14.38-6.81,19.04-4.54,4.66-10.73,6.99-18.56,6.99-2.99,0-5.74-.34-8.26-1.03-2.52-.69-4.85-1.73-6.99-3.15Z"/>
      </g>
    </g>
  </g>
</svg>